# xmcd CD Database Entry
#
# Track frame offsets:
# 150
# 13579
# 34734
# 50371
# 70952
# 86259
# 102741
# 114875
# 130455
# 145153
# 160985
# 179981
# 197190
# 218821
#
# Disc length: 3005 seconds
#
# Revision: 1
# Processed by: cddbd v1.4PL0 Copyright (c) Steve Scherf et al.
# Submitted via: tcd 2.0b
#
DISCID=ce0bbb0e
DTITLE=Energy - Come on
DYEAR=1900
DGENRE=Rock
TTITLE0=Intro(Energy is coming)
TTITLE1=放手
TTITLE2=Come on
TTITLE3=第二次愛上你
TTITLE4=You better not come home(Featuring Cecilia)
TTITLE5=More than words
TTITLE6=踢到鐵板
TTITLE7=夏令時間
TTITLE8=Days
TTITLE9=One time
TTITLE10=愛情半途
TTITLE11=Together
TTITLE12=永遠不說再見
TTITLE13=Outro(Epilogue)
EXTD=ID3G: 17
EXTT0=
EXTT1=
EXTT2=
EXTT3=
EXTT4=
EXTT5=
EXTT6=
EXTT7=
EXTT8=
EXTT9=
EXTT10=
EXTT11=
EXTT12=
EXTT13=
PLAYORDER=
